<svg width="371" height="633" viewBox="0 0 371 633" fill="none" xmlns="http://www.w3.org/2000/svg">
<path fill-rule="evenodd" clip-rule="evenodd" d="M549.37 247.624C530.085 180.717 528.061 96.656 478.44 56.1226C428.24 15.1159 366.608 61.0292 308.705 51.0337C256.724 42.0602 208.834 -5.96525 158.019 0.808671C100.913 8.42119 32.6032 27.7679 12.1351 90.5683C-8.86905 155.013 61.7343 227.769 60.7322 299.304C59.6376 377.443 -22.1695 438.82 6.21724 513.02C33.1897 583.524 117.493 586.991 178.788 607.893C229.066 625.039 277.962 621.599 328.853 623.042C385.668 624.653 446.971 647.713 494.843 616.854C545.484 584.21 582.516 522.576 592.806 452.894C602.831 385.008 569.154 316.26 549.37 247.624Z" fill="#FDF5EA"/>
</svg>
